<svg width="378" height="126" viewBox="0 0 378 126" fill="none" xmlns="http://www.w3.org/2000/svg">
<path d="M334.644 63.4401L329.957 63.9515C329.824 63.478 329.592 63.0329 329.261 62.6162C328.939 62.1996 328.503 61.8634 327.954 61.6077C327.405 61.352 326.732 61.2242 325.937 61.2242C324.867 61.2242 323.967 61.4562 323.238 61.9202C322.518 62.3842 322.163 62.9856 322.173 63.7242C322.163 64.3587 322.395 64.8748 322.869 65.2725C323.352 65.6702 324.147 65.9969 325.255 66.2526L328.977 67.0481C331.041 67.4931 332.575 68.1986 333.579 69.1645C334.592 70.1305 335.103 71.3947 335.113 72.9572C335.103 74.3303 334.701 75.5424 333.906 76.5935C333.12 77.6352 332.026 78.4496 330.624 79.0367C329.223 79.6238 327.613 79.9174 325.795 79.9174C323.124 79.9174 320.975 79.3587 319.346 78.2412C317.717 77.1144 316.746 75.5471 316.434 73.5395L321.448 73.0566C321.675 74.0414 322.158 74.7848 322.897 75.2867C323.636 75.7886 324.597 76.0395 325.781 76.0395C327.002 76.0395 327.982 75.7886 328.721 75.2867C329.469 74.7848 329.843 74.1645 329.843 73.4259C329.843 72.8009 329.602 72.2848 329.119 71.8776C328.645 71.4704 327.906 71.1579 326.903 70.9401L323.181 70.1589C321.088 69.7233 319.54 68.9894 318.536 67.9572C317.532 66.9155 317.035 65.5992 317.045 64.0083C317.035 62.6636 317.4 61.4988 318.138 60.514C318.887 59.5197 319.924 58.7526 321.249 58.2128C322.585 57.6636 324.123 57.389 325.866 57.389C328.423 57.389 330.435 57.9335 331.903 59.0225C333.38 60.1115 334.294 61.5841 334.644 63.4401Z" fill="black"/>
<path d="M301.541 79.4912V57.6731H306.526V61.3094H306.754C307.151 60.05 307.833 59.0793 308.799 58.3975C309.774 57.7062 310.887 57.3606 312.137 57.3606C312.421 57.3606 312.738 57.3748 313.089 57.4032C313.449 57.4221 313.747 57.4553 313.984 57.5026V62.2327C313.766 62.157 313.42 62.0907 312.947 62.0339C312.483 61.9676 312.033 61.9344 311.597 61.9344C310.66 61.9344 309.817 62.138 309.069 62.5452C308.33 62.943 307.748 63.4969 307.322 64.2072C306.896 64.9174 306.683 65.7365 306.683 66.6645V79.4912H301.541Z" fill="black"/>
<path d="M287.489 79.9174C285.301 79.9174 283.412 79.4628 281.821 78.5537C280.24 77.6352 279.023 76.3378 278.17 74.6617C277.318 72.9761 276.892 70.9922 276.892 68.71C276.892 66.4657 277.318 64.496 278.17 62.8009C279.032 61.0964 280.235 59.7706 281.778 58.8236C283.322 57.8672 285.135 57.389 287.219 57.389C288.563 57.389 289.832 57.6068 291.026 58.0424C292.228 58.4685 293.289 59.1314 294.207 60.031C295.135 60.9306 295.865 62.0765 296.395 63.4685C296.925 64.8511 297.19 66.4988 297.19 68.4117V69.9884H279.307V66.5225H292.261C292.252 65.5376 292.039 64.6617 291.622 63.8947C291.205 63.1181 290.623 62.5073 289.875 62.0623C289.136 61.6172 288.275 61.3947 287.29 61.3947C286.239 61.3947 285.315 61.6503 284.52 62.1617C283.724 62.6636 283.104 63.3265 282.659 64.1503C282.223 64.9647 282.001 65.8596 281.991 66.835V69.8606C281.991 71.1295 282.223 72.2185 282.687 73.1276C283.152 74.0272 283.8 74.7185 284.634 75.2015C285.467 75.675 286.442 75.9117 287.56 75.9117C288.308 75.9117 288.985 75.8075 289.591 75.5992C290.197 75.3814 290.723 75.0642 291.168 74.6475C291.613 74.2308 291.949 73.7147 292.176 73.0992L296.977 73.639C296.674 74.9079 296.097 76.0159 295.244 76.9628C294.402 77.9003 293.322 78.6295 292.006 79.1503C290.689 79.6617 289.184 79.9174 287.489 79.9174Z" fill="black"/>
<path d="M252.83 87.6731V57.6731H257.886V61.281H258.185C258.45 60.7507 258.824 60.1873 259.307 59.5907C259.79 58.9846 260.443 58.4685 261.267 58.0424C262.091 57.6068 263.142 57.389 264.421 57.389C266.106 57.389 267.626 57.8198 268.98 58.6816C270.344 59.5339 271.423 60.7981 272.219 62.4742C273.024 64.1409 273.426 66.1863 273.426 68.6106C273.426 71.0064 273.033 73.0424 272.247 74.7185C271.461 76.3947 270.391 77.6731 269.037 78.5537C267.683 79.4344 266.149 79.8748 264.435 79.8748C263.185 79.8748 262.148 79.6664 261.324 79.2498C260.5 78.8331 259.837 78.3312 259.335 77.7441C258.843 77.1475 258.459 76.5841 258.185 76.0537H257.972V87.6731H252.83ZM257.872 68.5822C257.872 69.9931 258.071 71.2289 258.469 72.2895C258.876 73.3501 259.458 74.1788 260.216 74.7753C260.983 75.3625 261.911 75.656 263 75.656C264.136 75.656 265.088 75.353 265.855 74.7469C266.622 74.1314 267.2 73.2933 267.588 72.2327C267.986 71.1626 268.185 69.9458 268.185 68.5822C268.185 67.228 267.991 66.0253 267.602 64.9742C267.214 63.9231 266.636 63.0992 265.869 62.5026C265.102 61.906 264.146 61.6077 263 61.6077C261.902 61.6077 260.969 61.8966 260.202 62.4742C259.435 63.0519 258.852 63.8615 258.455 64.9032C258.066 65.9448 257.872 67.1712 257.872 68.5822Z" fill="black"/>
<path d="M227.83 87.6731V57.6731H232.886V61.281H233.185C233.45 60.7507 233.824 60.1873 234.307 59.5907C234.79 58.9846 235.443 58.4685 236.267 58.0424C237.091 57.6068 238.142 57.389 239.421 57.389C241.106 57.389 242.626 57.8198 243.98 58.6816C245.344 59.5339 246.423 60.7981 247.219 62.4742C248.024 64.1409 248.426 66.1863 248.426 68.6106C248.426 71.0064 248.033 73.0424 247.247 74.7185C246.461 76.3947 245.391 77.6731 244.037 78.5537C242.683 79.4344 241.149 79.8748 239.435 79.8748C238.185 79.8748 237.148 79.6664 236.324 79.2498C235.5 78.8331 234.837 78.3312 234.335 77.7441C233.843 77.1475 233.459 76.5841 233.185 76.0537H232.972V87.6731H227.83ZM232.872 68.5822C232.872 69.9931 233.071 71.2289 233.469 72.2895C233.876 73.3501 234.458 74.1788 235.216 74.7753C235.983 75.3625 236.911 75.656 238 75.656C239.136 75.656 240.088 75.353 240.855 74.7469C241.622 74.1314 242.2 73.2933 242.588 72.2327C242.986 71.1626 243.185 69.9458 243.185 68.5822C243.185 67.228 242.991 66.0253 242.602 64.9742C242.214 63.9231 241.636 63.0992 240.869 62.5026C240.102 61.906 239.146 61.6077 238 61.6077C236.902 61.6077 235.969 61.8966 235.202 62.4742C234.435 63.0519 233.852 63.8615 233.455 64.9032C233.066 65.9448 232.872 67.1712 232.872 68.5822Z" fill="black"/>
<path d="M211.139 79.9316C209.757 79.9316 208.511 79.6854 207.403 79.193C206.305 78.6911 205.434 77.9524 204.79 76.977C204.155 76.0017 203.838 74.799 203.838 73.3691C203.838 72.138 204.065 71.12 204.52 70.3151C204.974 69.5102 205.595 68.8662 206.381 68.3833C207.167 67.9003 208.052 67.5358 209.037 67.2895C210.031 67.0339 211.059 66.8492 212.119 66.7356C213.398 66.603 214.435 66.4846 215.23 66.3805C216.026 66.2668 216.603 66.0964 216.963 65.8691C217.332 65.6323 217.517 65.2678 217.517 64.7753V64.6901C217.517 63.62 217.2 62.7914 216.565 62.2043C215.931 61.6172 215.017 61.3236 213.824 61.3236C212.564 61.3236 211.565 61.5983 210.827 62.1475C210.098 62.6967 209.605 63.3454 209.349 64.0935L204.548 63.4117C204.927 62.0859 205.552 60.978 206.423 60.0878C207.295 59.1882 208.36 58.5159 209.619 58.0708C210.879 57.6162 212.271 57.389 213.795 57.389C214.847 57.389 215.893 57.5121 216.935 57.7583C217.976 58.0045 218.928 58.4117 219.79 58.9799C220.652 59.5386 221.343 60.3009 221.864 61.2668C222.394 62.2327 222.659 63.4401 222.659 64.889V79.4912H217.716V76.4941H217.545C217.233 77.1002 216.793 77.6683 216.224 78.1986C215.666 78.7195 214.96 79.1409 214.108 79.4628C213.265 79.7753 212.276 79.9316 211.139 79.9316ZM212.474 76.1532C213.507 76.1532 214.402 75.9496 215.159 75.5424C215.917 75.1257 216.499 74.5765 216.906 73.8947C217.323 73.2128 217.531 72.4695 217.531 71.6645V69.0935C217.37 69.2261 217.096 69.3492 216.707 69.4628C216.329 69.5765 215.902 69.6759 215.429 69.7611C214.955 69.8464 214.487 69.9221 214.023 69.9884C213.559 70.0547 213.156 70.1115 212.815 70.1589C212.048 70.263 211.362 70.4335 210.756 70.6702C210.15 70.907 209.671 71.2384 209.321 71.6645C208.971 72.0812 208.795 72.621 208.795 73.2839C208.795 74.2308 209.141 74.9458 209.832 75.4287C210.524 75.9117 211.404 76.1532 212.474 76.1532Z" fill="black"/>
<path d="M168.838 50.4003H175.287L183.923 71.4799H184.264L192.901 50.4003H199.349V79.4912H194.293V59.5054H194.023L185.983 79.406H182.205L174.165 59.4628H173.895V79.4912H168.838V50.4003Z" fill="black"/>
<path d="M121.746 79.8748C120.032 79.8748 118.498 79.4344 117.144 78.5537C115.79 77.6731 114.72 76.3946 113.934 74.7185C113.148 73.0424 112.755 71.0064 112.755 68.6106C112.755 66.1863 113.153 64.1409 113.948 62.4742C114.753 60.7981 115.837 59.5339 117.201 58.6816C118.565 57.8198 120.085 57.389 121.761 57.389C123.039 57.389 124.09 57.6068 124.914 58.0424C125.738 58.4685 126.391 58.9846 126.874 59.5907C127.357 60.1873 127.731 60.7507 127.996 61.281H128.21V50.4003H133.366V79.4912H128.309V76.0537H127.996C127.731 76.584 127.348 77.1475 126.846 77.7441C126.344 78.3312 125.681 78.8331 124.857 79.2498C124.033 79.6664 122.996 79.8748 121.746 79.8748ZM123.181 75.656C124.27 75.656 125.198 75.3625 125.965 74.7753C126.732 74.1787 127.315 73.3501 127.712 72.2895C128.11 71.2289 128.309 69.9931 128.309 68.5821C128.309 67.1712 128.11 65.9448 127.712 64.9032C127.324 63.8615 126.746 63.0518 125.979 62.4742C125.222 61.8965 124.289 61.6077 123.181 61.6077C122.035 61.6077 121.079 61.906 120.312 62.5026C119.545 63.0992 118.967 63.9231 118.579 64.9742C118.191 66.0253 117.996 67.228 117.996 68.5821C117.996 69.9458 118.191 71.1626 118.579 72.2327C118.977 73.2933 119.559 74.1314 120.326 74.7469C121.103 75.353 122.054 75.656 123.181 75.656Z" fill="black"/>
<path d="M96.9595 79.9316C95.5769 79.9316 94.3317 79.6854 93.2237 79.193C92.1252 78.6911 91.254 77.9524 90.6101 76.977C89.9756 76.0017 89.6584 74.799 89.6584 73.3691C89.6584 72.138 89.8857 71.12 90.3402 70.3151C90.7947 69.5102 91.415 68.8662 92.201 68.3833C92.987 67.9003 93.8724 67.5358 94.8572 67.2895C95.8516 67.0339 96.879 66.8492 97.9396 66.7356C99.218 66.603 100.255 66.4846 101.05 66.3805C101.846 66.2668 102.424 66.0964 102.783 65.8691C103.153 65.6323 103.337 65.2678 103.337 64.7753V64.6901C103.337 63.62 103.02 62.7914 102.386 62.2043C101.751 61.6172 100.837 61.3236 99.6442 61.3236C98.3847 61.3236 97.3857 61.5983 96.647 62.1475C95.9179 62.6967 95.4254 63.3454 95.1697 64.0935L90.3686 63.4117C90.7474 62.0859 91.3724 60.978 92.2436 60.0878C93.1148 59.1882 94.1802 58.5159 95.4396 58.0708C96.6991 57.6162 98.0912 57.389 99.6158 57.389C100.667 57.389 101.713 57.5121 102.755 57.7583C103.797 58.0045 104.748 58.4117 105.61 58.9799C106.472 59.5386 107.163 60.3009 107.684 61.2668C108.214 62.2327 108.479 63.4401 108.479 64.889V79.4912H103.536V76.4941H103.366C103.053 77.1002 102.613 77.6683 102.045 78.1986C101.486 78.7195 100.781 79.1409 99.9283 79.4628C99.0855 79.7753 98.0959 79.9316 96.9595 79.9316ZM98.2948 76.1532C99.3269 76.1532 100.222 75.9496 100.979 75.5424C101.737 75.1257 102.319 74.5765 102.727 73.8947C103.143 73.2128 103.352 72.4695 103.352 71.6645V69.0935C103.191 69.2261 102.916 69.3492 102.528 69.4628C102.149 69.5765 101.723 69.6759 101.249 69.7611C100.776 69.8464 100.307 69.9221 99.843 69.9884C99.379 70.0547 98.9766 70.1115 98.6357 70.1589C97.8686 70.263 97.1821 70.4335 96.576 70.6702C95.9699 70.907 95.4917 71.2384 95.1413 71.6645C94.791 72.0812 94.6158 72.621 94.6158 73.2839C94.6158 74.2308 94.9614 74.9458 95.6527 75.4287C96.344 75.9117 97.2247 76.1532 98.2948 76.1532Z" fill="black"/>
<path d="M75.8622 79.9174C73.7315 79.9174 71.885 79.4486 70.3225 78.5111C68.76 77.5736 67.5478 76.2621 66.6861 74.5765C65.8338 72.8909 65.4077 70.9212 65.4077 68.6674C65.4077 66.4136 65.8338 64.4392 66.6861 62.7441C67.5478 61.049 68.76 59.7327 70.3225 58.7952C71.885 57.8577 73.7315 57.389 75.8622 57.389C77.9929 57.389 79.8395 57.8577 81.402 58.7952C82.9645 59.7327 84.1719 61.049 85.0242 62.7441C85.8859 64.4392 86.3168 66.4136 86.3168 68.6674C86.3168 70.9212 85.8859 72.8909 85.0242 74.5765C84.1719 76.2621 82.9645 77.5736 81.402 78.5111C79.8395 79.4486 77.9929 79.9174 75.8622 79.9174ZM75.8906 75.7981C77.0459 75.7981 78.0119 75.4808 78.7884 74.8464C79.5649 74.2024 80.1425 73.3407 80.5213 72.2611C80.9096 71.1816 81.1037 69.9789 81.1037 68.6532C81.1037 67.318 80.9096 66.1106 80.5213 65.031C80.1425 63.942 79.5649 63.0755 78.7884 62.4316C78.0119 61.7876 77.0459 61.4657 75.8906 61.4657C74.7069 61.4657 73.7221 61.7876 72.9361 62.4316C72.1596 63.0755 71.5772 63.942 71.1889 65.031C70.8101 66.1106 70.6208 67.318 70.6208 68.6532C70.6208 69.9789 70.8101 71.1816 71.1889 72.2611C71.5772 73.3407 72.1596 74.2024 72.9361 74.8464C73.7221 75.4808 74.7069 75.7981 75.8906 75.7981Z" fill="black"/>
<path d="M40.8693 79.4912V50.4003H51.7784C54.0133 50.4003 55.8883 50.7886 57.4034 51.5651C58.928 52.3416 60.0786 53.4306 60.8551 54.8321C61.6411 56.2242 62.0341 57.8482 62.0341 59.7043C62.0341 61.5698 61.6364 63.1892 60.8409 64.5623C60.0549 65.9259 58.8949 66.9818 57.3608 67.7299C55.8267 68.4685 53.9422 68.8378 51.7074 68.8378H43.9375V64.4628H50.9972C52.304 64.4628 53.3741 64.2829 54.2074 63.9231C55.0407 63.5537 55.6563 63.0187 56.054 62.3179C56.4612 61.6077 56.6648 60.7365 56.6648 59.7043C56.6648 58.6721 56.4612 57.7914 56.054 57.0623C55.6468 56.3236 55.0265 55.7649 54.1932 55.3861C53.3599 54.9979 52.285 54.8037 50.9688 54.8037H46.1392V79.4912H40.8693ZM55.8977 66.3094L63.0994 79.4912H57.2188L50.1449 66.3094H55.8977Z" fill="black"/>
<path d="M99.4805 123.716C103.041 124.142 106.529 124.325 109.9 124.227L109.93 125.226C106.503 125.325 102.965 125.141 99.3613 124.709L99.4805 123.716ZM130.332 120.086C127.277 121.802 123.955 123.053 120.436 123.894L120.203 122.921C123.643 122.099 126.876 120.88 129.842 119.214L130.332 120.086ZM79.1211 119.021C82.4742 120.127 85.8373 121.086 89.1768 121.87L88.9482 122.844C85.5778 122.053 82.1862 121.085 78.8076 119.97L78.9648 119.495L79.1211 119.021ZM59.7676 111.019C62.8819 112.563 66.071 114.018 69.3027 115.359L68.9199 116.283C65.6667 114.933 62.4568 113.469 59.3232 111.915L59.5449 111.467L59.7676 111.019ZM144.067 104.446L144.518 104.664C142.877 108.068 140.9 110.996 138.634 113.488L138.264 113.152L137.894 112.815C140.092 110.399 142.017 107.551 143.617 104.229L144.067 104.446ZM41.6494 100.508C44.4631 102.405 47.4345 104.266 50.5264 106.058L50.2764 106.49L50.0254 106.923C46.9144 105.12 43.9229 103.247 41.0898 101.337L41.3701 100.923L41.6494 100.508ZM25.3955 87.3984C27.6721 89.6775 30.2988 92.0058 33.2109 94.3301L32.5869 95.1123C29.6501 92.7684 26.9953 90.4148 24.6885 88.1055L25.3955 87.3984ZM149.127 84.1904L149.625 84.2324C149.311 87.998 148.764 91.4638 148.007 94.6465L147.521 94.5312L147.034 94.415C147.779 91.2861 148.318 87.8702 148.629 84.1494L149.127 84.1904ZM16.4736 74.8311C16.9531 76.2482 17.7138 77.768 18.7344 79.3662L18.3125 79.6348L17.8916 79.9043C16.8395 78.2568 16.038 76.6636 15.5264 75.1514L16.4736 74.8311ZM149.41 62.5635C149.442 64.4356 149.524 66.3561 149.657 68.3242C149.782 70.1754 149.865 71.9736 149.907 73.7197L149.407 73.7314L148.907 73.7441C148.866 72.0131 148.784 70.2291 148.659 68.3916C148.525 66.4073 148.443 64.4698 148.411 62.5801L148.911 62.5723L149.41 62.5635ZM356.162 64.126C357.574 65.4016 358.968 66.6911 360.344 67.9941L359.656 68.7207C358.286 67.423 356.897 66.1387 355.491 64.8682L355.827 64.4971L356.162 64.126ZM338.568 49.5967C341.607 51.8927 344.596 54.2509 347.524 56.668L346.888 57.4395C343.97 55.0317 340.994 52.682 337.966 50.3945L338.568 49.5967ZM151.405 40.043L151.888 40.1719C150.963 43.6284 150.285 47.3375 149.871 51.3076L148.876 51.2041C149.295 47.1856 149.983 43.4242 150.922 39.9131L151.405 40.043ZM319.813 36.6133C323.02 38.6439 326.194 40.7445 329.324 42.9111L329.039 43.3223L328.755 43.7334C325.636 41.5746 322.474 39.4814 319.278 37.458L319.546 37.0352L319.813 36.6133ZM300.054 25.2021C303.406 26.9585 306.742 28.7945 310.052 30.7061L309.552 31.5723C306.254 29.6675 302.93 27.8379 299.59 26.0879L300.054 25.2021ZM161.564 19.8867L161.948 20.207C159.604 23.0156 157.551 26.155 155.821 29.6406L155.373 29.4189L154.925 29.1963C156.688 25.6419 158.785 22.4356 161.181 19.5654L161.564 19.8867ZM279.406 15.4824C282.885 16.9369 286.364 18.484 289.835 20.1191L289.622 20.5713L289.408 21.0234C285.951 19.3946 282.485 17.8538 279.021 16.4053L279.213 15.9443L279.406 15.4824ZM179.898 6.92285C176.39 8.47201 173.124 10.3364 170.135 12.5303L169.543 11.7236C172.595 9.48392 175.925 7.58422 179.495 6.00781L179.898 6.92285ZM257.972 7.69824C261.555 8.79906 265.162 10.0104 268.78 11.3271L268.609 11.7969L268.438 12.2666C264.835 10.9555 261.245 9.74995 257.678 8.6543L257.824 8.17578L257.972 7.69824ZM235.782 2.2666C239.463 2.92489 243.197 3.72076 246.969 4.64941L246.849 5.13574L246.729 5.62109C242.977 4.69731 239.265 3.90529 235.606 3.25098L235.782 2.2666ZM201.683 0.970703L201.732 1.46777C197.862 1.85188 194.14 2.47115 190.589 3.33496L190.353 2.36328C193.953 1.4875 197.721 0.860945 201.634 0.472656L201.683 0.970703ZM213.076 0C216.787 0.0449319 220.593 0.269373 224.479 0.666992L224.377 1.66211C220.519 1.26731 216.743 1.04455 213.064 1L213.076 0Z" fill="black"/>
<path d="M20 66.4912C20 62.6252 16.866 59.4912 13 59.4912C9.13401 59.4912 6 62.6252 6 66.4912C6 70.3572 9.13401 73.4912 13 73.4912V79.4912C5.8203 79.4912 0 73.6709 0 66.4912C0 59.3115 5.8203 53.4912 13 53.4912C20.1797 53.4912 26 59.3115 26 66.4912C26 73.6709 20.1797 79.4912 13 79.4912V73.4912C16.866 73.4912 20 70.3572 20 66.4912Z" fill="black"/>
<path d="M353.258 58.9912C354.693 58.1628 356.528 58.6544 357.356 60.0893L367.356 77.4098C368.185 78.8447 367.693 80.6794 366.258 81.5079C364.823 82.3363 362.989 81.8447 362.16 80.4098L352.16 63.0893C351.332 61.6544 351.823 59.8196 353.258 58.9912Z" fill="black"/>
<path d="M352.598 77.8476C351.163 78.676 349.328 78.1844 348.5 76.7495C347.672 75.3147 348.163 73.4799 349.598 72.6515L366.919 62.6515C368.353 61.823 370.188 62.3147 371.017 63.7495C371.845 65.1844 371.353 67.0192 369.919 67.8476L352.598 77.8476Z" fill="black"/>
</svg>
